<svg viewBox="176.455 27.212 134.95 131.612" width="500" height="200">
    <g transform="matrix(1, 0, 0, 1, 172.610168, 21.181982)">
        <ellipse style="fill: rgb(255, 108, 55);" cx="71.32" cy="71.836" rx="67.475" ry="65.806"></ellipse>
        <rect x="45.676" y="21.311" width="11.395" height="3.891" style="fill: rgb(255, 255, 255);"
            transform="matrix(0.711796, -0.702386, 0.710884, 0.70341, -14.913463, 125.260513)" rx="1.946" ry="1.946">
        </rect>
        <path
            d="M 111.643 36.31 L 75.923 72.314 L 65.829 61.936 C 100.985 26.78 104.514 29.957 111.646 36.31 L 111.643 36.31 Z"
            class="D" style="fill: rgb(255, 255, 255);"
            transform="matrix(0.999222, 0.03943, -0.03943, 0.999222, 2.131717, -3.458238)"></path>
        <path
            d="M 75.926 73.298 C 75.611 73.29 75.309 73.166 75.079 72.946 L 64.913 62.781 C 64.439 62.288 64.439 61.507 64.913 61.015 C 99.574 26.354 104.305 27.977 112.493 35.389 C 112.771 35.611 112.927 35.95 112.917 36.308 C 112.97 36.652 112.837 37.004 112.565 37.226 L 76.845 72.949 C 76.593 73.179 76.268 73.304 75.926 73.301 L 75.926 73.298 Z M 67.595 61.934 L 75.926 70.265 L 109.811 36.379 C 107.389 33.343 103.071 32.615 99.786 34.685 C 93.644 37.438 83.762 45.838 67.595 61.934 Z"
            class="C" style="fill: rgb(255, 108, 55);"
            transform="matrix(0.999222, 0.03943, -0.03943, 0.999222, 2.125995, -3.458568)"></path>
        <path
            d="M 85.864 82.54 L 76.122 72.586 L 111.842 37.287 C 121.444 46.677 107.183 62.349 85.864 82.537 L 85.864 82.54 Z"
            class="D" style="fill: rgb(255, 255, 255);"
            transform="matrix(0.999222, 0.03943, -0.03943, 0.999222, 2.436663, -3.719281)"></path>
        <path
            d="M 85.875 83.813 C 85.562 83.79 85.266 83.665 85.027 83.461 L 75.074 73.719 C 74.925 73.357 74.925 72.952 75.074 72.589 C 74.968 72.292 74.968 71.967 75.074 71.67 L 110.794 35.95 C 111.31 35.466 112.112 35.466 112.628 35.95 C 114.971 38.105 116.255 41.171 116.157 44.35 C 116.157 53.88 105.285 65.881 86.791 83.39 C 86.544 83.636 86.219 83.784 85.872 83.813 L 85.875 83.813 Z M 77.967 72.589 L 85.943 80.563 C 100.061 67.22 113.547 53.454 113.616 44.136 C 113.692 42.161 113.041 40.226 111.781 38.701 L 77.967 72.589 Z"
            class="C" style="fill: rgb(255, 108, 55);"
            transform="matrix(0.999222, 0.03943, -0.03943, 0.999222, 2.428287, -3.721593)"></path>
        <path
            d="M 77.52 99.732 L 41.8 63.729 L 31.706 74.106 C 66.862 109.262 70.391 106.085 77.522 99.732 L 77.52 99.732 Z"
            class="D" style="fill: rgb(255, 255, 255);"
            transform="matrix(-0.03943, 0.999222, -0.999222, -0.03943, 140.431636, 32.459238)"></path>
        <path
            d="M 41.651 62.596 C 41.336 62.604 41.035 62.728 40.804 62.948 L 30.639 73.113 C 30.165 73.606 30.165 74.387 30.639 74.879 C 65.3 109.54 70.03 107.917 78.219 100.505 C 78.497 100.283 78.653 99.944 78.642 99.586 C 78.695 99.242 78.563 98.89 78.29 98.668 L 42.57 62.945 C 42.319 62.715 41.993 62.59 41.651 62.593 L 41.651 62.596 Z M 33.32 73.96 L 41.651 65.629 L 75.537 99.515 C 73.115 102.551 68.797 103.279 65.512 101.209 C 59.37 98.456 49.487 90.056 33.32 73.96 Z"
            class="C" style="fill: rgb(255, 108, 55);"
            transform="matrix(-0.03943, 0.999222, -0.999222, -0.03943, 140.277142, 32.601217)"></path>
        <path
            d="M 51.981 68.224 L 42.239 78.178 L 77.959 113.477 C 87.561 104.087 73.3 88.415 51.981 68.226 L 51.981 68.224 Z"
            class="D" style="fill: rgb(255, 255, 255);"
            transform="matrix(-0.03943, 0.999222, -0.999222, -0.03943, 154.834519, 32.855852)"></path>
        <path
            d="M 51.722 66.77 C 51.409 66.794 51.113 66.919 50.875 67.122 L 40.921 76.865 C 40.773 77.227 40.773 77.632 40.921 77.995 C 40.815 78.291 40.815 78.617 40.921 78.914 L 76.641 114.633 C 77.157 115.118 77.959 115.118 78.475 114.633 C 80.818 112.479 82.102 109.413 82.004 106.234 C 82.004 96.703 71.132 84.703 52.638 67.194 C 52.392 66.948 52.066 66.799 51.719 66.77 L 51.722 66.77 Z M 43.814 77.995 L 51.791 70.021 C 65.909 83.364 79.394 97.13 79.463 106.448 C 79.54 108.423 78.888 110.358 77.628 111.883 L 43.814 77.995 Z"
            class="C" style="fill: rgb(255, 108, 55);"
            transform="matrix(-0.03943, 0.999222, -0.999222, -0.03943, 154.643689, 33.105051)"></path>
        <rect x="45.676" y="21.311" width="11.395" height="3.891" style="fill: rgb(255, 255, 255);"
            transform="matrix(0.695295, 0.718725, -0.710424, 0.703875, 74.851547, -16.96447)" rx="1.946" ry="1.946">
        </rect>
        <rect x="45.676" y="21.311" width="11.395" height="3.891" style="fill: rgb(255, 255, 255);"
            transform="matrix(0.762678, -0.646778, 0.655884, 0.754956, 33.416435, 52.260189)" rx="1.946" ry="1.946">
        </rect>
    </g>
</svg>